<svg width="48" height="48" viewBox="0 0 48 48" fill="none" xmlns="http://www.w3.org/2000/svg">
<path d="M16 8V4H12V8H16Z" fill="#2B2D33"/>
<path fill-rule="evenodd" clip-rule="evenodd" d="M16 18V12H12V18C8.68629 18 6 20.6863 6 24V29.9564C5.99941 29.9845 5.99941 30.0125 6 30.0404V36H10V33C12.4902 32.9999 13.8408 31.8419 14.7749 31.041L14.8012 31.0185C15.6161 30.32 16.0135 30 16.9996 30C17.9858 30 18.3832 30.32 19.1981 31.0185L19.2243 31.041C20.1585 31.8419 21.5092 33 23.9996 33C26.49 33 27.8408 31.8419 28.7749 31.041L28.8012 31.0185C29.6161 30.32 30.0135 30 30.9996 30C31.9858 30 32.3832 30.32 33.1981 31.0185L33.2243 31.041C34.1585 31.8419 35.5092 33 37.9996 33C37.9998 33 37.9995 33 37.9996 33L38 36H42V30.04C42.0006 30.0123 42.0006 29.9846 42 29.9568V24C42 20.6863 39.3137 18 36 18V12H32V18H26V12H22V18H16ZM38 29V24C38 22.8954 37.1046 22 36 22H12C10.8954 22 10 22.8954 10 24V29C10.9859 28.9999 11.3833 28.6799 12.1981 27.9815L12.2243 27.959C13.1585 27.1581 14.5092 26 16.9996 26C19.49 26 20.8408 27.1581 21.7749 27.959L21.8012 27.9815C22.6161 28.68 23.0135 29 23.9996 29C24.9858 29 25.3832 28.68 26.1981 27.9815L26.2243 27.959C27.1585 27.1581 28.5092 26 30.9996 26C33.49 26 34.8408 27.1581 35.7749 27.959L35.8012 27.9815C36.6161 28.68 37.0138 29 38 29C37.9999 29 38.0001 29 38 29Z" fill="#2B2D33"/>
<path d="M4 44L44 44V40L4 40V44Z" fill="#2B2D33"/>
<path d="M26 4V8H22V4H26Z" fill="#2B2D33"/>
<path d="M36 4V8H32V4H36Z" fill="#2B2D33"/>
</svg>
