<svg width="27" height="27" viewBox="0 0 27 27" fill="none" xmlns="http://www.w3.org/2000/svg">
<path d="M23.6571 0H2.62857C1.93143 0 1.26284 0.276938 0.769891 0.769891C0.276938 1.26284 0 1.93143 0 2.62857V18.4C0 19.0971 0.276938 19.7657 0.769891 20.2587C1.26284 20.7516 1.93143 21.0286 2.62857 21.0286H6.57143V18.4H2.62857V2.62857H23.6571V18.4H12.5987L6.57143 24.4273V26.2857H8.42983L13.687 21.0286H23.6571C24.3543 21.0286 25.0229 20.7516 25.5158 20.2587C26.0088 19.7657 26.2857 19.0971 26.2857 18.4V2.62857C26.2857 1.93143 26.0088 1.26284 25.5158 0.769891C25.0229 0.276938 24.3543 0 23.6571 0Z" fill="#2B2D33"/>
<path d="M19.7145 6.57129H6.57166V9.19986H19.7145V6.57129Z" fill="#2B2D33"/>
<path d="M19.7145 11.8286H6.57166V14.4572H19.7145V11.8286Z" fill="#2B2D33"/>
</svg>
