<svg width="48" height="48" viewBox="0 0 48 48" fill="none" xmlns="http://www.w3.org/2000/svg">
<path d="M44.4142 16.5859L30.4142 2.58594L27.5858 5.41436L38.1717 16.0002H4V20.0002H38.1715L28.5858 29.5859L31.4142 32.4144L44.4142 19.4144C45.1953 18.6333 45.1953 17.367 44.4142 16.5859Z" fill="#2B2D33"/>
<path d="M10 31.0002C10 32.6571 8.65685 34.0002 7 34.0002C5.34315 34.0002 4 32.6571 4 31.0002C4 29.3434 5.34315 28.0002 7 28.0002C8.65685 28.0002 10 29.3434 10 31.0002Z" fill="#2B2D33"/>
<path d="M19 46.0002C20.6569 46.0002 22 44.6571 22 43.0002C22 41.3434 20.6569 40.0002 19 40.0002C17.3431 40.0002 16 41.3434 16 43.0002C16 44.6571 17.3431 46.0002 19 46.0002Z" fill="#2B2D33"/>
<path d="M21.4142 31.4145L7.41421 45.4145L4.58578 42.5861L18.5858 28.5861L21.4142 31.4145Z" fill="#2B2D33"/>
</svg>
