<svg width="48" height="50" viewBox="0 0 48 50" fill="none" xmlns="http://www.w3.org/2000/svg">
<path d="M9.68632 0.585693L2.68631 7.58569C2.31124 7.96077 2.10052 8.46948 2.10052 8.99991C2.10052 9.53034 2.31124 10.0391 2.68631 10.4141L9.68631 17.4141L12.5147 14.5857L8.92895 10.9999H40V6.99991H8.92895L12.5147 3.41412L9.68632 0.585693Z" fill="#2B2D33"/>
<path d="M38.2426 49.4141L45.2426 42.4141C45.6177 42.039 45.8284 41.5303 45.8284 40.9999C45.8284 40.4695 45.6177 39.9608 45.2426 39.5857L38.2426 32.5857L35.4142 35.4141L39 38.9999L8 38.9999V42.9999L39 42.9999L35.4142 46.5857L38.2426 49.4141Z" fill="#2B2D33"/>
<path d="M30 33.9999C31.6569 33.9999 33 32.6568 33 30.9999C33 29.3431 31.6569 27.9999 30 27.9999C28.3431 27.9999 27 29.3431 27 30.9999C27 32.6568 28.3431 33.9999 30 33.9999Z" fill="#2B2D33"/>
<path d="M21 18.9999C21 20.6568 19.6568 21.9999 18 21.9999C16.3431 21.9999 15 20.6568 15 18.9999C15 17.3431 16.3431 15.9999 18 15.9999C19.6568 15.9999 21 17.3431 21 18.9999Z" fill="#2B2D33"/>
<path d="M18.4142 33.4142L32.4142 19.4142L29.5858 16.5858L15.5858 30.5858L18.4142 33.4142Z" fill="#2B2D33"/>
</svg>
