<svg width="48" height="48" viewBox="0 0 48 48" fill="none" xmlns="http://www.w3.org/2000/svg">
<path fill-rule="evenodd" clip-rule="evenodd" d="M5.99994 30.0001C5.4695 30.0001 4.9608 29.7894 4.58573 29.4143C4.21065 29.0393 3.99994 28.5306 3.99994 28.0001L3.99994 6.00012C3.99994 5.46969 4.21065 4.96098 4.58572 4.58591C4.9608 4.21083 5.4695 4.00012 5.99994 4.00012H7.96933C7.97953 4.00004 7.98973 4 7.99994 4C8.01015 4 8.02035 4.00004 8.03055 4.00012L39.9684 4.00012C39.9789 4.00004 39.9894 4 39.9999 4C40.0105 4 40.021 4.00004 40.0315 4.00012L41.9999 4.00012C42.5304 4.00012 43.0391 4.21083 43.4142 4.58591C43.7892 4.96098 43.9999 5.46969 43.9999 6.00012V28.0001C43.9999 29.1047 43.1045 30.0001 41.9999 30.0001H41.0293L32.8239 41.4877C31.6976 43.0645 29.8792 44.0002 27.9415 44.0002H25.9999V40.0002H27.9415C28.5874 40.0002 29.1935 39.6883 29.5689 39.1627L36.1136 30.0001H23.9999V32.0001L19.9999 32.0001V24.0001C19.9999 22.8956 19.1045 22.0001 17.9999 22.0001C16.8954 22.0001 15.9999 22.8956 15.9999 24.0001V38.0001C15.9999 39.1047 16.8954 40.0001 17.9999 40.0001V44.0001C14.6862 44.0001 11.9999 41.3138 11.9999 38.0001L11.9999 30.0001H5.99994ZM39.9684 26.0001L39.9999 12C37.7908 12 36 10.2092 35.9999 8.00012L11.9999 8.00012C11.9999 10.2092 10.209 12 7.99994 12L7.99994 26.0001L11.9999 26.0001V24.0001C11.9999 20.6864 14.6862 18.0001 17.9999 18.0001C21.3136 18.0001 23.9999 20.6864 23.9999 24.0001V26.0001L39.9684 26.0001Z" fill="#2B2D33"/>
</svg>
