<svg width="48" height="48" viewBox="0 0 48 48" fill="none" xmlns="http://www.w3.org/2000/svg">
<path fill-rule="evenodd" clip-rule="evenodd" d="M31.526 9.88055C28.38 8.20367 24.7641 7.62549 21.2521 8.23777C17.74 8.85005 14.5331 10.6177 12.1401 13.2602C9.93289 15.6977 8.53482 18.7507 8.1255 22H14C15.1046 22 16 22.8955 16 24V34C16 34.5307 15.7891 35.0397 15.4137 35.4148C15.0382 35.7899 14.5291 36.0005 13.9984 36L9.02902 35.9959C8.36143 35.9954 7.73813 35.6618 7.3674 35.1066C4.89272 31.4007 3.7266 26.9744 4.0541 22.5302C4.3816 18.086 6.18396 13.8785 9.17516 10.5753C12.1664 7.27213 16.175 5.06256 20.5651 4.29721C24.9551 3.53186 29.475 4.25458 33.4075 6.35068C37.34 8.44678 40.4598 11.7962 42.2719 15.8674C44.0839 19.9386 44.4844 24.4983 43.4098 28.8231C42.3351 33.1478 39.847 36.9897 36.3401 39.7393C32.8332 42.4888 28.5085 43.9883 24.0522 44L24.0418 40C27.6068 39.9907 31.0665 38.791 33.872 36.5914C34.1152 36.4007 34.3523 36.2035 34.5831 36H34C32.8955 36 32 35.1046 32 34V24C32 22.8954 32.8955 22 34 22H39.8745C39.6799 20.4548 39.2594 18.9361 38.6175 17.4939C37.1678 14.237 34.672 11.5574 31.526 9.88055ZM39.8746 26H36V32H37.8564C38.5995 30.7129 39.1646 29.3202 39.5278 27.8584C39.6805 27.2438 39.796 26.6233 39.8746 26ZM8.12549 26C8.39087 28.1062 9.07375 30.1461 10.1418 31.9969L12 31.9984V26H8.12549Z" fill="#2B2D33"/>
</svg>
