<svg width="48" height="48" viewBox="0 0 48 48" fill="none" xmlns="http://www.w3.org/2000/svg">
<path fill-rule="evenodd" clip-rule="evenodd" d="M24 2C24.8104 2 25.5408 2.4891 25.8494 3.2385L31.822 17.7434L40.7335 10.4521C41.3823 9.9213 42.2931 9.85136 43.0153 10.2769C43.7375 10.7024 44.1177 11.5331 43.9677 12.3578L40 34.1803V42C40 43.1046 39.1046 44 38 44H10C8.89543 44 8 43.1046 8 42V34.1803L4.03226 12.3578C3.88232 11.5331 4.26253 10.7024 4.98469 10.2769C5.70685 9.85136 6.61774 9.9213 7.26648 10.4521L16.178 17.7434L22.1506 3.2385C22.4592 2.4891 23.1896 2 24 2ZM12 36V40H36V36H12ZM36.3308 32L39.06 16.9896L32.2665 22.5479C31.7762 22.9491 31.1248 23.0942 30.5106 22.9392C29.8963 22.7842 29.3918 22.3473 29.1506 21.7615L24 9.25279L18.8494 21.7615C18.6082 22.3473 18.1037 22.7842 17.4894 22.9392C16.8752 23.0942 16.2238 22.9491 15.7335 22.5479L8.93998 16.9896L11.6692 32H36.3308Z" fill="#2B2D33"/>
</svg>
