<svg width="19" height="19" viewBox="0 0 19 19" fill="none" xmlns="http://www.w3.org/2000/svg">
<path fill-rule="evenodd" clip-rule="evenodd" d="M13.0802 0H4.9854C3.6632 0.0019 2.3958 0.5282 1.4611 1.4634C0.526501 2.3986 0.001 3.6662 0 4.9884V13.0783C0.001 14.4005 0.526501 15.6681 1.4611 16.6033C2.3958 17.5385 3.6632 18.0648 4.9854 18.0667H13.0802C14.4025 18.0648 15.67 17.5387 16.6048 16.6035C17.5396 15.6684 18.0653 14.4006 18.0666 13.0783V4.9884C18.0653 3.6662 17.5396 2.3984 16.6048 1.4632C15.67 0.528 14.4025 0.0019 13.0802 0ZM16.4637 13.0783C16.4629 13.9752 16.1063 14.8351 15.4721 15.4692C14.838 16.1034 13.9781 16.4599 13.0812 16.4607H4.9854C4.0885 16.4599 3.2286 16.1034 2.5945 15.4692C1.9603 14.8351 1.6037 13.9752 1.6029 13.0783V4.9884C1.6037 4.0916 1.9603 3.2317 2.5945 2.5975C3.2286 1.9633 4.0885 1.6068 4.9854 1.606H13.0802C13.9773 1.6066 14.8374 1.9631 15.4718 2.5973C16.1062 3.2315 16.4629 4.0914 16.4637 4.9884V13.0783ZM9.0363 4.3763C8.1151 4.3759 7.2145 4.6487 6.4484 5.1602C5.6822 5.6717 5.085 6.3987 4.7322 7.2497C4.3794 8.1006 4.2869 9.0372 4.4664 9.9408C4.6458 10.8443 5.0892 11.6743 5.7405 12.3258C6.3917 12.9773 7.2215 13.4211 8.125 13.601C9.0284 13.7809 9.965 13.6888 10.8161 13.3363C11.6672 12.9839 12.3947 12.3869 12.9065 11.621C13.4183 10.8551 13.6915 9.9545 13.6915 9.0334C13.6907 7.7983 13.1996 6.6139 12.3262 5.7407C11.4527 4.8674 10.2684 4.3768 9.0333 4.3763H9.0363ZM9.0363 12.0847C8.4329 12.0845 7.843 11.9052 7.3414 11.5698C6.8397 11.2344 6.4488 10.7578 6.218 10.2003C5.9873 9.6427 5.9269 9.0292 6.0448 8.4374C6.1626 7.8456 6.4533 7.3021 6.8801 6.8755C7.3069 6.4489 7.8505 6.1583 8.4424 6.0406C9.0343 5.923 9.6477 5.9834 10.2052 6.2144C10.7627 6.4453 11.2392 6.8366 11.5744 7.3384C11.9096 7.8401 12.0886 8.4299 12.0886 9.0334C12.0884 9.4344 12.0093 9.8313 11.8557 10.2017C11.702 10.5721 11.4769 10.9086 11.1932 11.192C10.9094 11.4753 10.5726 11.7002 10.202 11.8533C9.8314 12.0065 9.4343 12.0851 9.0333 12.0847H9.0363ZM13.8872 3.0212C13.7331 3.0206 13.5803 3.0506 13.4377 3.1092C13.2951 3.1677 13.1654 3.2538 13.0561 3.3625C12.9466 3.4719 12.8598 3.6016 12.8005 3.7446C12.7413 3.8875 12.7108 4.0407 12.7108 4.1954C12.7108 4.3502 12.7413 4.5034 12.8005 4.6463C12.8598 4.7893 12.9466 4.9192 13.0561 5.0286C13.2775 5.2473 13.5761 5.3699 13.8872 5.3699C14.1984 5.3699 14.497 5.2473 14.7183 5.0286C14.9387 4.8074 15.0624 4.5077 15.0624 4.1954C15.0624 3.8832 14.9387 3.5838 14.7183 3.3625C14.6087 3.2534 14.4786 3.167 14.3354 3.1084C14.1922 3.0498 14.0389 3.0201 13.8842 3.0212H13.8872Z" fill="url(#paint0_linear_20_62)"/>
<defs>
<linearGradient id="paint0_linear_20_62" x1="9.0333" y1="0" x2="9.0333" y2="18.0667" gradientUnits="userSpaceOnUse">
<stop stop-color="#7B2BBB"/>
<stop offset="0.192708" stop-color="#A53FA9"/>
<stop offset="0.385417" stop-color="#CC3F84"/>
<stop offset="0.71875" stop-color="#D45E51"/>
<stop offset="1" stop-color="#E18B42"/>
</linearGradient>
</defs>
</svg>
