<svg width="126" height="50" viewBox="0 0 126 50" fill="none" xmlns="http://www.w3.org/2000/svg">
<path d="M0 27.7256C2.15979 32.7939 7.18713 36.3493 13.0461 36.3493C10.8863 31.2788 5.85896 27.7256 0 27.7256Z" fill="#12B36A"/>
<path d="M13.0472 36.3492C17.3512 36.3492 21.0571 33.7913 22.7292 30.1143C18.4262 30.1143 14.7204 32.6722 13.0472 36.3492Z" fill="#12B36A"/>
<path fill-rule="evenodd" clip-rule="evenodd" d="M13.0472 29.2617C18.9183 29.2617 23.678 24.5031 23.678 18.6308C23.678 12.7608 18.9183 8 13.0472 8C7.17496 8 2.41635 12.7608 2.41635 18.6308C2.41635 24.5031 7.17496 29.2617 13.0472 29.2617ZM13.0472 23.947C15.9822 23.947 18.362 21.5671 18.362 18.631C18.362 15.6949 15.9822 13.3161 13.0472 13.3161C10.111 13.3161 7.73118 15.6949 7.73118 18.631C7.73118 21.5671 10.111 23.947 13.0472 23.947Z" fill="#FEBE10"/>
<path d="M81.4449 18.631H85.8916V35.8673H81.4449V29.1546H73.6805V35.8673H69.2337V18.631H73.6805V24.9832H81.4449V18.631ZM87.9861 22.9064H93.5222V35.8673H97.9689V22.9064H103.438V18.631H87.9861V22.9064ZM125 32.1183V35.7821C124.242 36.1615 123.295 36.3505 122.189 36.3505C119.879 36.3505 118.716 35.3453 118.25 33.7263L118.176 33.8347C116.831 35.5234 114.97 36.3505 112.557 36.3505C110.246 36.3505 108.281 35.4891 106.627 33.7307C105.007 31.9724 104.18 29.8004 104.18 27.2492C104.18 24.7001 105.007 22.5624 106.627 20.8041C108.281 19.0468 110.246 18.1489 112.557 18.1489C114.863 18.1489 116.665 18.9075 117.994 20.4524V18.6321H122.441V30.8245C122.441 31.8662 122.915 32.4026 123.863 32.4026C124.306 32.4015 124.685 32.3074 125 32.1183ZM118.176 27.248C118.176 25.8369 117.728 24.6647 116.797 23.7678C115.901 22.8378 114.763 22.3888 113.384 22.3888C112.005 22.3888 110.868 22.8367 109.971 23.7678C109.075 24.6647 108.627 25.8369 108.627 27.248C108.627 28.6625 109.075 29.8347 109.971 30.7659C110.868 31.6616 112.005 32.1095 113.384 32.1095C114.763 32.1095 115.901 31.6616 116.797 30.7659C117.728 29.8347 118.176 28.6625 118.176 27.248ZM32.5992 18.631L32.4665 25.1071C32.4355 27.7291 32.3404 29.0241 31.9611 30.5071C31.6138 31.9292 30.9503 32.3307 29.9097 32.3307C29.5613 32.3307 29.2461 32.2986 28.9929 32.2035V35.8673C29.3401 36.0564 29.9096 36.1504 30.6672 36.1504C33.7935 36.0564 35.3097 34.5811 36.0683 31.9281C36.6047 30.0327 36.6998 28.5795 36.7949 26.401L36.8944 22.9052H42.4161V35.8662H46.8628V18.6299H32.5992V18.631ZM54.0157 28.4126C54.4945 31.3542 56.8268 32.3174 59.1934 32.3174C60.7615 32.3174 62.4049 31.7047 63.4157 30.788L66.1582 33.5472C64.5204 35.3608 62.2401 36.3505 59.1237 36.3505C54.761 36.3505 49.4981 33.775 49.4981 27.2492C49.4981 20.7245 54.5664 18.1489 58.8705 18.1489C64.3147 18.1489 66.5674 20.7068 66.5674 23.5743C66.5685 28.2622 60.61 30.4275 54.0157 28.4126ZM61.7402 24.0819C61.7402 22.7449 60.4176 22.1477 58.9357 22.1477C56.672 22.1477 54.7102 23.1032 54.1141 25.5627C58.7267 26.8953 61.7402 25.9011 61.7402 24.0819Z" fill="white"/>
</svg>
