<svg width="48" height="48" viewBox="0 0 48 48" fill="none" xmlns="http://www.w3.org/2000/svg">
<path fill-rule="evenodd" clip-rule="evenodd" d="M14 14C14 8.47715 18.4772 4 24 4C29.5228 4 34 8.47715 34 14C34 19.5228 29.5228 24 24 24C18.4772 24 14 19.5228 14 14ZM24 8C20.6863 8 18 10.6863 18 14C18 17.3137 20.6863 20 24 20C27.3137 20 30 17.3137 30 14C30 10.6863 27.3137 8 24 8Z" fill="#2B2D33"/>
<path d="M24 28L20 26V32L24 30L28 32V26L24 28Z" fill="#2B2D33"/>
<path d="M16.7311 27.6092C10.4201 30.6442 7 37.4024 7 43.9999H11C11 38.653 13.78 33.4669 18.4647 31.214L16.7311 27.6092Z" fill="#2B2D33"/>
<path d="M29.5356 31.214C34.2201 33.4669 37 38.6529 37 43.9999H41C41 37.4025 37.5802 30.6442 31.2692 27.6092L29.5356 31.214Z" fill="#2B2D33"/>
</svg>
