<svg width="48" height="48" viewBox="0 0 48 48" fill="none" xmlns="http://www.w3.org/2000/svg">
<path d="M16 25L16 17H20V25H16Z" fill="#2B2D33"/>
<path d="M18 11C16.8954 11 16 11.8954 16 13C16 14.1046 16.8954 15 18 15C19.1046 15 20 14.1046 20 13C20 11.8954 19.1046 11 18 11Z" fill="#2B2D33"/>
<path fill-rule="evenodd" clip-rule="evenodd" d="M18 32C25.732 32 32 25.732 32 18C32 10.268 25.732 4 18 4C10.268 4 4 10.268 4 18C4 25.732 10.268 32 18 32ZM28 18C28 23.5228 23.5228 28 18 28C12.4772 28 8 23.5228 8 18C8 12.4772 12.4772 8 18 8C23.5228 8 28 12.4772 28 18Z" fill="#2B2D33"/>
<path d="M38 8H32V4H38C40.2091 4 42 5.79086 42 8V40C42 42.2091 40.2091 44 38 44H18C15.7909 44 14 42.2091 14 40V36H18V40H38V8Z" fill="#2B2D33"/>
<path d="M30 34C30 35.1046 29.1046 36 28 36C26.8954 36 26 35.1046 26 34C26 32.8954 26.8954 32 28 32C29.1046 32 30 32.8954 30 34Z" fill="#2B2D33"/>
</svg>
