<svg width="48" height="48" viewBox="0 0 48 48" fill="none" xmlns="http://www.w3.org/2000/svg">
<path d="M14 8H26V4H14C11.7909 4 10 5.79086 10 8V40C10 42.2091 11.7909 44 14 44H34C36.2091 44 38 42.2091 38 40V28H34V40H14V8Z" fill="#2B2D33"/>
<path d="M26 34C26 35.1046 25.1046 36 24 36C22.8954 36 22 35.1046 22 34C22 32.8954 22.8954 32 24 32C25.1046 32 26 32.8954 26 34Z" fill="#2B2D33"/>
<path d="M43.4142 15.4142C43.7893 15.0391 44 14.5304 44 14C44 13.4696 43.7893 12.9609 43.4142 12.5858L35.4142 4.58578L32.5858 7.41421L37.1716 12L26 12L26 16L37.1716 16L32.5858 20.5858L35.4142 23.4142L43.4142 15.4142Z" fill="#2B2D33"/>
</svg>
