<svg width="48" height="48" viewBox="0 0 48 48" fill="none" xmlns="http://www.w3.org/2000/svg">
<path fill-rule="evenodd" clip-rule="evenodd" d="M20 4C16.6863 4 14 6.68629 14 10V12H6C4.89543 12 4 12.8954 4 14V22C4 23.1046 4.89543 24 6 24V42C6 43.1046 6.89543 44 8 44H40C41.1046 44 42 43.1046 42 42V24C43.1046 24 44 23.1046 44 22V14C44 12.8954 43.1046 12 42 12H34V10C34 6.68629 31.3137 4 28 4C26.4633 4 25.0615 4.57771 24 5.52779C22.9385 4.57771 21.5367 4 20 4ZM20 8C21.1046 8 22 8.89543 22 10V12H18V10C18 8.89543 18.8954 8 20 8ZM28 8C29.1046 8 30 8.89543 30 10V12H26V10C26 8.89543 26.8954 8 28 8ZM26 24H38V40H26V24ZM10 40V24H22V40H10ZM26 20V16H40V20H26ZM22 20V16H8V20H22Z" fill="#2B2D33"/>
</svg>
