<svg width="48" height="48" viewBox="0 0 48 48" fill="none" xmlns="http://www.w3.org/2000/svg">
<path fill-rule="evenodd" clip-rule="evenodd" d="M4 11C4 7.13401 7.13401 4 11 4C14.866 4 18 7.13401 18 11C18 14.866 14.866 18 11 18C7.13401 18 4 14.866 4 11ZM11 8C9.34315 8 8 9.34315 8 11C8 12.6569 9.34315 14 11 14C12.6569 14 14 12.6569 14 11C14 9.34315 12.6569 8 11 8Z" fill="#2B2D33"/>
<path d="M35.0001 20C34.556 20 34.1196 20.0199 33.6912 20.0593V24.0832C34.1081 24.0288 34.5443 24 35.0001 24C40.5375 24 44 28.4033 44 34H48C48 26.7967 43.3044 20 35.0001 20Z" fill="#2B2D33"/>
<path d="M24.0001 30C15.6959 30 11 36.7966 11 44H15C15 38.4034 18.4628 34 24.0001 34C29.5375 34 33 38.4033 33 44H37C37 36.7967 32.3044 30 24.0001 30Z" fill="#2B2D33"/>
<path fill-rule="evenodd" clip-rule="evenodd" d="M37 4C33.134 4 30 7.13401 30 11C30 14.866 33.134 18 37 18C40.866 18 44 14.866 44 11C44 7.13401 40.866 4 37 4ZM34 11C34 9.34315 35.3431 8 37 8C38.6569 8 40 9.34315 40 11C40 12.6569 38.6569 14 37 14C35.3431 14 34 12.6569 34 11Z" fill="#2B2D33"/>
<path fill-rule="evenodd" clip-rule="evenodd" d="M17 21C17 17.134 20.134 14 24 14C27.866 14 31 17.134 31 21C31 24.866 27.866 28 24 28C20.134 28 17 24.866 17 21ZM24 18C22.3431 18 21 19.3431 21 21C21 22.6569 22.3431 24 24 24C25.6569 24 27 22.6569 27 21C27 19.3431 25.6569 18 24 18Z" fill="#2B2D33"/>
<path d="M12.9999 20C13.444 20 13.8804 20.0199 14.3088 20.0593V24.0832C13.8919 24.0288 13.4557 24 12.9999 24C7.46253 24 4 28.4033 4 34H0C0 26.7967 4.69558 20 12.9999 20Z" fill="#2B2D33"/>
</svg>
