<svg width="48" height="48" viewBox="0 0 48 48" fill="none" xmlns="http://www.w3.org/2000/svg">
<path fill-rule="evenodd" clip-rule="evenodd" d="M7.58579 37.5858L37.5858 7.58579L40.4142 10.4142L10.4142 40.4142L7.58579 37.5858Z" fill="#2B2D33"/>
<path fill-rule="evenodd" clip-rule="evenodd" d="M13.5 10C11.567 10 10 11.567 10 13.5C10 15.433 11.567 17 13.5 17C15.433 17 17 15.433 17 13.5C17 11.567 15.433 10 13.5 10ZM6 13.5C6 9.35786 9.35786 6 13.5 6C17.6421 6 21 9.35786 21 13.5C21 17.6421 17.6421 21 13.5 21C9.35786 21 6 17.6421 6 13.5Z" fill="#2B2D33"/>
<path fill-rule="evenodd" clip-rule="evenodd" d="M34.5 31C32.567 31 31 32.567 31 34.5C31 36.433 32.567 38 34.5 38C36.433 38 38 36.433 38 34.5C38 32.567 36.433 31 34.5 31ZM27 34.5C27 30.3579 30.3579 27 34.5 27C38.6421 27 42 30.3579 42 34.5C42 38.6421 38.6421 42 34.5 42C30.3579 42 27 38.6421 27 34.5Z" fill="#2B2D33"/>
</svg>
