<svg width="48" height="48" viewBox="0 0 48 48" fill="none" xmlns="http://www.w3.org/2000/svg">
<path fill-rule="evenodd" clip-rule="evenodd" d="M22.0473 4L20.0576 8.41191C13.1307 10.1863 8.0103 16.4705 8.0103 23.9506C8.0103 32.809 15.1914 39.9901 24.0498 39.9901C31.5299 39.9901 37.8141 34.8698 39.5885 27.9428L44.0004 25.9531C42.9956 36.0859 34.4469 44 24.0498 44C12.9768 44 4.00043 35.0236 4.00043 23.9506C4.00043 13.5535 11.9146 5.00478 22.0473 4ZM41.4576 9.37822L41.507 9.32885L38.6716 6.49345L24.637 20.528L24.6864 20.5774L24.637 20.6267L27.4724 23.4621L41.507 9.42758L41.4576 9.37822ZM27.0572 12.0198C28.7182 12.0198 30.0646 10.6733 30.0646 9.01234C30.0646 7.3514 28.7182 6.00494 27.0572 6.00494C25.3963 6.00494 24.0498 7.3514 24.0498 9.01234C24.0498 10.6733 25.3963 12.0198 27.0572 12.0198ZM42.0942 21.042C42.0942 22.7029 40.7478 24.0494 39.0868 24.0494C37.4259 24.0494 36.0794 22.7029 36.0794 21.042C36.0794 19.381 37.4259 18.0346 39.0868 18.0346C40.7478 18.0346 42.0942 19.381 42.0942 21.042Z" fill="#2B2D33"/>
</svg>
