<svg width="48" height="48" viewBox="0 0 48 48" fill="none" xmlns="http://www.w3.org/2000/svg">
<path d="M24 8C15.1634 8 8 15.1634 8 24V34H4V24C4 12.9543 12.9543 4 24 4C35.0457 4 44 12.9543 44 24V34H40V24C40 15.1634 32.8366 8 24 8Z" fill="#2B2D33"/>
<path fill-rule="evenodd" clip-rule="evenodd" d="M22 28V30H28V34H22V38H44V42H4V38H18V34H16V30H18V28H16V24H18V16L26 16C26.7879 16 27.5681 16.1552 28.2961 16.4567C29.0241 16.7583 29.6855 17.2002 30.2426 17.7574C30.7998 18.3145 31.2417 18.9759 31.5433 19.7039C31.8448 20.4319 32 21.2121 32 22C32 22.7879 31.8448 23.5681 31.5433 24.2961C31.2417 25.0241 30.7998 25.6855 30.2426 26.2426C29.6855 26.7998 29.0241 27.2417 28.2961 27.5433C27.5681 27.8448 26.7879 28 26 28H22ZM26 24C26.2626 24 26.5227 23.9483 26.7654 23.8478C27.008 23.7472 27.2285 23.5999 27.4142 23.4142C27.5999 23.2285 27.7472 23.008 27.8478 22.7654C27.9483 22.5227 28 22.2626 28 22C28 21.7374 27.9483 21.4773 27.8478 21.2346C27.7472 20.992 27.5999 20.7715 27.4142 20.5858C27.2285 20.4001 27.008 20.2527 26.7654 20.1522C26.5227 20.0517 26.2626 20 26 20H22V24H26Z" fill="#2B2D33"/>
</svg>
