<svg width="48" height="48" viewBox="0 0 48 48" fill="none" xmlns="http://www.w3.org/2000/svg">
<path fill-rule="evenodd" clip-rule="evenodd" d="M12 20V18H18C18.7879 18 19.5681 17.8448 20.2961 17.5433C21.0241 17.2417 21.6855 16.7998 22.2426 16.2426C22.7998 15.6855 23.2417 15.0241 23.5433 14.2961C23.8448 13.5681 24 12.7879 24 12C24 11.2121 23.8448 10.4319 23.5433 9.7039C23.2417 8.97595 22.7998 8.31451 22.2426 7.75736C21.6855 7.20021 21.0241 6.75825 20.2961 6.45672C19.5681 6.15519 18.7879 6 18 6L8 6V14H4V18H8V20H4V24H8V30H12V24H20V20H12ZM18.7654 13.8478C18.5227 13.9483 18.2626 14 18 14H12V10L18 10C18.2626 10 18.5227 10.0517 18.7654 10.1522C19.008 10.2528 19.2285 10.4001 19.4142 10.5858C19.5999 10.7715 19.7472 10.992 19.8478 11.2346C19.9483 11.4773 20 11.7374 20 12C20 12.2626 19.9483 12.5227 19.8478 12.7654C19.7472 13.008 19.5999 13.2285 19.4142 13.4142C19.2285 13.5999 19.008 13.7472 18.7654 13.8478Z" fill="#2B2D33"/>
<path d="M29.1831 9.5766V18.5767H33.1831V13.4325C34.8111 14.8473 36.0997 16.6275 36.9343 18.6424C38.1137 21.4897 38.3206 24.6466 37.523 27.6235C36.7253 30.6003 34.9677 33.2308 32.5227 35.1069C30.0776 36.9831 27.0819 38 24 38C20.287 38 16.726 36.525 14.1005 33.8995L11.2721 36.7279C14.6477 40.1036 19.2261 42 24 42C27.9624 42 31.8141 40.6925 34.9577 38.2804C38.1013 35.8682 40.3611 32.4861 41.3867 28.6587C42.4122 24.8313 42.1462 20.7725 40.6298 17.1117C39.7744 15.0465 38.548 13.1731 37.0254 11.5766L40.1831 11.5767L40.1831 7.57666L31.1831 7.5766C30.6527 7.5766 30.144 7.78731 29.7689 8.16238C29.3938 8.53746 29.1831 9.04616 29.1831 9.5766Z" fill="#2B2D33"/>
</svg>
