<svg width="48" height="48" viewBox="0 0 48 48" fill="none" xmlns="http://www.w3.org/2000/svg">
<path fill-rule="evenodd" clip-rule="evenodd" d="M23.5433 7.7039C23.8448 8.43185 24 9.21207 24 10C24 10.7879 23.8448 11.5681 23.5433 12.2961C23.2417 13.0241 22.7998 13.6855 22.2426 14.2426C21.6855 14.7998 21.0241 15.2417 20.2961 15.5433C19.5681 15.8448 18.7879 16 18 16H12V18H20V22H12V28H8V22H4V18H8V16H4V12H8V4H18C18.7879 4 19.5681 4.15519 20.2961 4.45672C21.0241 4.75825 21.6855 5.20021 22.2426 5.75736C22.7998 6.31451 23.2417 6.97595 23.5433 7.7039ZM12 12H18C18.2626 12 18.5227 11.9483 18.7654 11.8478C19.008 11.7473 19.2285 11.5999 19.4142 11.4142C19.5999 11.2285 19.7472 11.008 19.8478 10.7654C19.9483 10.5227 20 10.2626 20 10C20 9.73736 19.9483 9.47728 19.8478 9.23463C19.7472 8.99198 19.5999 8.7715 19.4142 8.58579C19.2285 8.40007 19.008 8.25275 18.7654 8.15224C18.5227 8.05173 18.2626 8 18 8H12V12Z" fill="#2B2D33"/>
<path d="M40.0002 22V16.8284L29.4144 27.4142L26.586 24.5858L37.1718 14H32.0002V10H42.0002C42.5306 10 43.0393 10.2107 43.4144 10.5858C43.7895 10.9609 44.0002 11.4696 44.0002 12V22H40.0002Z" fill="#2B2D33"/>
<path d="M27 37.1718V32.0002H23L23 42.0002C23 43.1048 23.8954 44.0002 25 44.0002H36V40.0002H29.8284L40.4142 29.4144L37.5858 26.586L27 37.1718Z" fill="#2B2D33"/>
</svg>
