<svg width="20" height="18" viewBox="0 0 20 18" fill="none" xmlns="http://www.w3.org/2000/svg">
<path fill-rule="evenodd" clip-rule="evenodd" d="M19.3571 2.0687C18.6397 2.4236 17.869 2.6556 17.0766 2.7548C17.924 2.1802 18.5428 1.3198 18.8228 0.326699C18.053 0.833999 17.1987 1.1956 16.3014 1.3937C15.9457 0.9627 15.502 0.6149 15.0008 0.3743C14.4996 0.1337 13.9529 0.006 13.3983 0C12.2965 0.0525 11.2602 0.5449 10.5161 1.3693C9.7719 2.1937 9.3805 3.283 9.4275 4.3989C9.4263 4.7356 9.4605 5.0713 9.5297 5.4006C7.9154 5.2933 6.3445 4.8257 4.9297 4.0313C3.5149 3.2369 2.2911 2.1354 1.3462 0.805699C0.9905 1.4866 0.805799 2.2458 0.808599 3.0161C0.799099 3.725 0.954 4.4262 1.2609 5.0635C1.5677 5.7008 2.0178 6.2562 2.5751 6.6854C1.9397 6.6538 1.322 6.4633 0.7774 6.1303C0.7774 6.1521 0.7774 6.1628 0.7774 6.1845C0.7472 7.1625 1.046 8.1219 1.6248 8.9053C2.2037 9.6887 3.0282 10.2497 3.9632 10.4963C3.6234 10.5969 3.2712 10.6484 2.9171 10.6489C2.666 10.6512 2.4154 10.6255 2.1698 10.5726C2.3884 11.4147 2.8654 12.1648 3.5321 12.7146C4.1988 13.2645 5.0207 13.5859 5.8793 13.6323C4.5118 14.8385 2.7618 15.5069 0.948299 15.516C0.631099 15.5163 0.3143 15.4944 0 15.4506C1.7803 16.7262 3.9059 17.4145 6.0868 17.4214C13.3908 17.4214 17.3841 10.7251 17.3841 4.9107C17.3841 4.7256 17.3841 4.5296 17.3734 4.3445C18.1619 3.7103 18.8335 2.9397 19.3571 2.0687Z" fill="#6EAAE8"/>
</svg>
