<svg width="20" height="12" viewBox="0 0 20 12" fill="none" xmlns="http://www.w3.org/2000/svg">
<path fill-rule="evenodd" clip-rule="evenodd" d="M9.46708 11.6023H10.6247C10.8222 11.5771 11.0069 11.4911 11.1529 11.3569C11.2603 11.1999 11.3159 11.0137 11.3121 10.8241C11.3121 10.8241 11.2895 9.17245 12.0103 8.93795C12.731 8.70355 13.6336 10.5151 14.6007 11.2079C14.7758 11.3598 14.9813 11.4735 15.2037 11.5414C15.4262 11.6094 15.6606 11.6301 15.8917 11.6023H18.4735C18.4735 11.6023 19.8258 11.4956 19.1846 10.3766C18.6776 9.49925 18.0281 8.71075 17.2622 8.04275C15.6399 6.45485 15.8573 6.71055 17.8109 3.98235C19.0007 2.30915 19.4762 1.29685 19.3277 0.859951C19.2017 0.723751 19.0431 0.621051 18.8666 0.561451C18.6901 0.501851 18.5013 0.487252 18.3176 0.518852H15.399C15.2692 0.508252 15.1391 0.534151 15.0235 0.593451C14.9082 0.686351 14.8195 0.807751 14.7664 0.945251C14.4698 1.77385 14.1102 2.57905 13.6906 3.35375C12.3943 5.67695 11.8758 5.79405 11.6639 5.64485C11.1701 5.31455 11.2938 4.30215 11.2938 3.58815C11.2938 1.35015 11.6165 0.412152 10.6634 0.167052C10.2189 0.0603516 9.76178 0.0138515 9.30468 0.0286515C8.49008 -0.0510485 7.66768 0.0359516 6.88848 0.284352C6.55718 0.454852 6.30108 0.838551 6.45818 0.859951C6.62458 0.873551 6.78658 0.920151 6.93438 0.997051C7.08228 1.07395 7.21298 1.17945 7.31878 1.30745C7.51998 1.74145 7.61858 2.21535 7.60708 2.69285C7.60708 2.69285 7.77818 5.33585 7.20588 5.66625C6.81428 5.89005 6.27528 5.43185 5.11988 3.33235C4.72358 2.59165 4.37608 1.82615 4.07958 1.04095C4.02498 0.911751 3.94318 0.795451 3.83968 0.699851C3.70518 0.609451 3.55318 0.547852 3.39328 0.518852H0.626383C0.419073 0.519051 0.218283 0.590551 0.0583732 0.721251C0.0218032 0.801351 0.00199281 0.888051 0.00014281 0.975951C-0.00170719 1.06385 0.0144334 1.15115 0.0476034 1.23275C0.0476034 1.23275 2.21318 6.60395 4.66588 9.28945C5.25688 9.98795 5.98998 10.5552 6.81728 10.9537C7.64468 11.3522 8.54758 11.5731 9.46708 11.6023Z" fill="#386CAA"/>
</svg>
