<svg width="21" height="21" viewBox="0 0 21 21" fill="none" xmlns="http://www.w3.org/2000/svg">
<path d="M20.8461 10.1546C20.8461 15.7629 16.2649 20.3092 10.6125 20.3092C8.81811 20.3092 7.13241 19.8506 5.66571 19.0457L0 20.8461L1.84721 15.3978C0.91538 13.8677 0.37871 12.0731 0.37871 10.1546C0.37871 4.54635 4.96051 0 10.6125 0C16.2653 0 20.8461 4.54635 20.8461 10.1546ZM10.6125 1.61715C5.86801 1.61715 2.00861 5.44705 2.00861 10.1546C2.00861 12.0226 2.61761 13.7527 3.64761 15.1601L2.57261 18.3307L5.87911 17.2799C7.23751 18.1719 8.86491 18.6921 10.6128 18.6921C15.3567 18.6921 19.2167 14.8626 19.2167 10.155C19.2167 5.44755 15.3569 1.61715 10.6125 1.61715ZM15.7803 12.4934C15.7171 12.3898 15.5501 12.3272 15.2994 12.2028C15.0484 12.0784 13.8147 11.476 13.5854 11.3933C13.3554 11.3104 13.1877 11.2687 13.0207 11.5177C12.8537 11.7669 12.3729 12.3273 12.2263 12.4934C12.0799 12.6599 11.9337 12.6807 11.6826 12.5561C11.432 12.4318 10.6239 12.1685 9.66571 11.3208C8.92011 10.6611 8.41651 9.84675 8.27011 9.59735C8.12401 9.34835 8.25481 9.21375 8.38011 9.08985C8.49321 8.97825 8.63121 8.79915 8.75651 8.65395C8.88231 8.50845 8.92401 8.40495 9.00721 8.23865C9.09121 8.07255 9.04931 7.92735 8.98631 7.80245C8.92381 7.67805 8.42161 6.45325 8.21271 5.95485C8.00381 5.45685 7.79511 5.53975 7.64841 5.53975C7.50231 5.53975 7.33481 5.51895 7.16761 5.51895C7.00041 5.51895 6.72841 5.58125 6.49841 5.83025C6.26871 6.07945 5.62081 6.68165 5.62081 7.90625C5.62081 9.13105 6.51931 10.3145 6.64511 10.4803C6.77041 10.6462 8.37991 13.2413 10.9301 14.238C13.4805 15.2341 13.4805 14.9017 13.9405 14.86C14.4001 14.8186 15.4243 14.258 15.6341 13.6771C15.8426 13.0954 15.8426 12.597 15.7803 12.4934Z" fill="#72CF4E"/>
</svg>
